<mxfile host="65bd71144e" pages="2">
    <diagram id="C0Q1FRjf-ovTnP4UXfIO" name="component">
        <mxGraphModel dx="1054" dy="1029" grid="0" gridSize="10" guides="1" tooltips="1" connect="1" arrows="1" fold="1" page="1" pageScale="1" pageWidth="827" pageHeight="1169" background="#ffffff" math="0" shadow="0">
            <root>
                <mxCell id="0"/>
                <mxCell id="1" parent="0"/>
                <object placeholders="1" c4Name="[Containers]Ording meal manage System containers" c4Type="ContainerDiagramTitle" c4Description="" label="&lt;font style=&quot;font-size: 16px&quot;&gt;&lt;b&gt;&lt;div style=&quot;text-align: left&quot;&gt;%c4Name%&lt;/div&gt;&lt;/b&gt;&lt;/font&gt;&lt;div style=&quot;text-align: left&quot;&gt;%c4Description%&lt;/div&gt;" id="Av403DZLy4ynUhrNrrgC-1">
                    <mxCell style="text;html=1;strokeColor=none;fillColor=none;align=left;verticalAlign=top;whiteSpace=wrap;rounded=1;metaEdit=1;allowArrows=0;resizable=1;rotatable=0;connectable=0;recursiveResize=0;expand=0;pointerEvents=0;points=[[0.25,0,0],[0.5,0,0],[0.75,0,0],[1,0.25,0],[1,0.5,0],[1,0.75,0],[0.75,1,0],[0.5,1,0],[0.25,1,0],[0,0.75,0],[0,0.5,0],[0,0.25,0]];fontColor=#000000;" vertex="1" parent="1">
                        <mxGeometry x="30" y="780" width="410" height="40" as="geometry"/>
                    </mxCell>
                </object>
                <object placeholders="1" c4Name="商家" c4Type="Person" c4Description="要進行接收顧客訂單、管理菜單、觀察銷量統計的商家使" label="&lt;font style=&quot;font-size: 16px&quot;&gt;&lt;b&gt;%c4Name%&lt;/b&gt;&lt;/font&gt;&lt;div&gt;[%c4Type%]&lt;/div&gt;&lt;br&gt;&lt;div&gt;&lt;font style=&quot;font-size: 11px&quot;&gt;&lt;font&gt;%c4Description%&lt;/font&gt;&lt;/font&gt;&lt;/div&gt;" id="Av403DZLy4ynUhrNrrgC-2">
                    <mxCell style="html=1;fontSize=11;dashed=0;whiteSpace=wrap;fillColor=#dae8fc;strokeColor=#6c8ebf;shape=mxgraph.c4.person2;align=center;metaEdit=1;points=[[0.5,0,0],[1,0.5,0],[1,0.75,0],[0.75,1,0],[0.5,1,0],[0.25,1,0],[0,0.75,0],[0,0.5,0]];resizable=0;spacingRight=10;spacingLeft=10;fontColor=#000000;rounded=1;" vertex="1" parent="1">
                        <mxGeometry x="20" y="560" width="200" height="180" as="geometry"/>
                    </mxCell>
                </object>
                <object placeholders="1" c4Name="未登入之顧客" c4Type="Person" c4Description="要進行瀏覽商家菜單的顧客，但未登入帳號" label="&lt;font style=&quot;font-size: 16px&quot;&gt;&lt;b&gt;%c4Name%&lt;/b&gt;&lt;/font&gt;&lt;div&gt;[%c4Type%]&lt;/div&gt;&lt;br&gt;&lt;div&gt;&lt;font style=&quot;font-size: 11px&quot;&gt;&lt;font&gt;%c4Description%&lt;/font&gt;&lt;/font&gt;&lt;/div&gt;" id="Av403DZLy4ynUhrNrrgC-3">
                    <mxCell style="html=1;fontSize=11;dashed=0;whiteSpace=wrap;fillColor=#dae8fc;strokeColor=#6c8ebf;shape=mxgraph.c4.person2;align=center;metaEdit=1;points=[[0.5,0,0],[1,0.5,0],[1,0.75,0],[0.75,1,0],[0.5,1,0],[0.25,1,0],[0,0.75,0],[0,0.5,0]];resizable=0;spacingRight=10;spacingLeft=10;fontColor=#000000;rounded=1;" vertex="1" parent="1">
                        <mxGeometry x="20" y="320" width="200" height="180" as="geometry"/>
                    </mxCell>
                </object>
                <object placeholders="1" c4Name="登入之顧客" c4Type="Person" c4Description="要進行瀏覽商家菜單並點餐、收藏店家的顧客，且已登入帳號" label="&lt;font style=&quot;font-size: 16px&quot;&gt;&lt;b&gt;%c4Name%&lt;/b&gt;&lt;/font&gt;&lt;div&gt;[%c4Type%]&lt;/div&gt;&lt;br&gt;&lt;div&gt;&lt;font style=&quot;font-size: 11px&quot;&gt;&lt;font&gt;%c4Description%&lt;/font&gt;&lt;/font&gt;&lt;/div&gt;" id="Av403DZLy4ynUhrNrrgC-4">
                    <mxCell style="html=1;fontSize=11;dashed=0;whiteSpace=wrap;fillColor=#dae8fc;strokeColor=#6c8ebf;shape=mxgraph.c4.person2;align=center;metaEdit=1;points=[[0.5,0,0],[1,0.5,0],[1,0.75,0],[0.75,1,0],[0.5,1,0],[0.25,1,0],[0,0.75,0],[0,0.5,0]];resizable=0;spacingRight=10;spacingLeft=10;fontColor=#000000;rounded=1;" vertex="1" parent="1">
                        <mxGeometry x="20" y="80" width="200" height="180" as="geometry"/>
                    </mxCell>
                </object>
                <object placeholders="1" c4Type="Relationship" c4Description="接單、管理訂單和菜單、統計銷量數據" label="&lt;div style=&quot;text-align: left&quot;&gt;&lt;div style=&quot;text-align: center&quot;&gt;&lt;b&gt;%c4Description%&lt;/b&gt;&lt;/div&gt;&lt;/div&gt;" id="Av403DZLy4ynUhrNrrgC-5">
                    <mxCell style="endArrow=blockThin;html=1;fontSize=10;fontColor=#404040;strokeWidth=1;endFill=1;strokeColor=#828282;elbow=vertical;metaEdit=1;endSize=14;startSize=14;jumpStyle=arc;jumpSize=16;rounded=1;edgeStyle=orthogonalEdgeStyle;entryX=0.5;entryY=1;entryDx=0;entryDy=0;entryPerimeter=0;labelBackgroundColor=none;" edge="1" parent="1">
                        <mxGeometry x="-0.3338" width="240" relative="1" as="geometry">
                            <mxPoint x="220" y="680" as="sourcePoint"/>
                            <mxPoint x="870" y="520" as="targetPoint"/>
                            <mxPoint as="offset"/>
                        </mxGeometry>
                    </mxCell>
                </object>
                <object placeholders="1" c4Type="Relationship" c4Description="瀏覽所有商家、商家菜單" label="&lt;div style=&quot;text-align: left&quot;&gt;&lt;div style=&quot;text-align: center&quot;&gt;&lt;b&gt;%c4Description%&lt;/b&gt;&lt;/div&gt;&lt;/div&gt;" id="Av403DZLy4ynUhrNrrgC-6">
                    <mxCell style="endArrow=blockThin;html=1;fontSize=10;fontColor=#404040;strokeWidth=1;endFill=1;strokeColor=#828282;elbow=vertical;metaEdit=1;endSize=14;startSize=14;jumpStyle=arc;jumpSize=16;rounded=1;edgeStyle=orthogonalEdgeStyle;exitX=0.992;exitY=0.727;exitDx=0;exitDy=0;exitPerimeter=0;labelBackgroundColor=none;" edge="1" parent="1" source="Av403DZLy4ynUhrNrrgC-4">
                        <mxGeometry x="-0.4699" y="-219" width="240" relative="1" as="geometry">
                            <mxPoint x="370" y="420" as="sourcePoint"/>
                            <mxPoint x="870" y="360" as="targetPoint"/>
                            <mxPoint as="offset"/>
                        </mxGeometry>
                    </mxCell>
                </object>
                <object placeholders="1" c4Type="Relationship" c4Description="瀏覽所有商家、商家菜單，並對指定商家下單，可選擇內用or外帶自取，取餐後可進行評論&#10;也可以收藏喜好店家" label="&lt;div style=&quot;text-align: left&quot;&gt;&lt;div style=&quot;text-align: center&quot;&gt;&lt;b&gt;%c4Description%&lt;/b&gt;&lt;/div&gt;&lt;/div&gt;" id="Av403DZLy4ynUhrNrrgC-7">
                    <mxCell style="endArrow=blockThin;html=1;fontSize=10;fontColor=#404040;strokeWidth=1;endFill=1;strokeColor=#828282;elbow=vertical;metaEdit=1;endSize=14;startSize=14;jumpStyle=arc;jumpSize=16;rounded=1;edgeStyle=orthogonalEdgeStyle;labelBackgroundColor=none;" edge="1" parent="1">
                        <mxGeometry x="0.0604" y="230" width="240" relative="1" as="geometry">
                            <mxPoint x="220" y="440" as="sourcePoint"/>
                            <mxPoint x="750" y="440" as="targetPoint"/>
                            <mxPoint as="offset"/>
                        </mxGeometry>
                    </mxCell>
                </object>
                <object placeholders="1" c4Name="Ording meal manage System" c4Type="SystemScopeBoundary" c4Application="Software System" label="&lt;font style=&quot;font-size: 16px&quot;&gt;&lt;b&gt;&lt;div style=&quot;text-align: left&quot;&gt;%c4Name%&lt;/div&gt;&lt;/b&gt;&lt;/font&gt;&lt;div style=&quot;text-align: left&quot;&gt;[%c4Application%]&lt;/div&gt;" id="Av403DZLy4ynUhrNrrgC-8">
                    <mxCell style="rounded=1;fontSize=11;whiteSpace=wrap;html=1;dashed=1;arcSize=20;fillColor=none;strokeColor=#666666;fontColor=#333333;labelBackgroundColor=none;align=left;verticalAlign=bottom;labelBorderColor=none;spacingTop=0;spacing=10;dashPattern=8 4;metaEdit=1;rotatable=0;perimeter=rectanglePerimeter;noLabel=0;labelPadding=0;allowArrows=0;connectable=0;expand=0;recursiveResize=0;editable=1;pointerEvents=0;absoluteArcSize=1;points=[[0.25,0,0],[0.5,0,0],[0.75,0,0],[1,0.25,0],[1,0.5,0],[1,0.75,0],[0.75,1,0],[0.5,1,0],[0.25,1,0],[0,0.75,0],[0,0.5,0],[0,0.25,0]];" vertex="1" parent="1">
                        <mxGeometry x="720" y="50" width="1150" height="710" as="geometry"/>
                    </mxCell>
                </object>
                <object placeholders="1" c4Name="API Application" c4Type="Container" c4Technology="Spring MVC and Java" c4Description="提供所有Web Application所需要的api controller 和 service" label="&lt;font style=&quot;font-size: 16px&quot;&gt;&lt;b&gt;%c4Name%&lt;/b&gt;&lt;/font&gt;&lt;div&gt;[%c4Type%: %c4Technology%]&lt;/div&gt;&lt;br&gt;&lt;div&gt;&lt;font style=&quot;font-size: 11px&quot;&gt;&lt;font color=&quot;#E6E6E6&quot;&gt;%c4Description%&lt;/font&gt;&lt;/div&gt;" id="Av403DZLy4ynUhrNrrgC-9">
                    <mxCell style="rounded=1;whiteSpace=wrap;html=1;fontSize=11;labelBackgroundColor=none;fillColor=#23A2D9;fontColor=#ffffff;align=center;arcSize=10;strokeColor=#0E7DAD;metaEdit=1;resizable=0;points=[[0.25,0,0],[0.5,0,0],[0.75,0,0],[1,0.25,0],[1,0.5,0],[1,0.75,0],[0.75,1,0],[0.5,1,0],[0.25,1,0],[0,0.75,0],[0,0.5,0],[0,0.25,0]];spacingLeft=10;spacingRight=10;" vertex="1" parent="1">
                        <mxGeometry x="1160" y="380" width="240" height="120" as="geometry"/>
                    </mxCell>
                </object>
                <object placeholders="1" c4Name="Web Application" c4Type="Container" c4Technology="React, Vite, TailwindCSS, TanStack Query, Zustand" c4Description="提供所有user view層的single page網頁" label="&lt;font style=&quot;font-size: 16px&quot;&gt;&lt;b&gt;%c4Name%&lt;/b&gt;&lt;/font&gt;&lt;div&gt;[%c4Type%: %c4Technology%]&lt;/div&gt;&lt;br&gt;&lt;div&gt;&lt;font style=&quot;font-size: 11px&quot;&gt;&lt;font color=&quot;#E6E6E6&quot;&gt;%c4Description%&lt;/font&gt;&lt;/div&gt;" id="Av403DZLy4ynUhrNrrgC-10">
                    <mxCell style="rounded=1;whiteSpace=wrap;html=1;fontSize=11;labelBackgroundColor=none;fillColor=#23A2D9;fontColor=#ffffff;align=center;arcSize=10;strokeColor=#0E7DAD;metaEdit=1;resizable=1;points=[[0.25,0,0],[0.5,0,0],[0.75,0,0],[1,0.25,0],[1,0.5,0],[1,0.75,0],[0.75,1,0],[0.5,1,0],[0.25,1,0],[0,0.75,0],[0,0.5,0],[0,0.25,0]];spacingLeft=10;spacingRight=10;" vertex="1" parent="1">
                        <mxGeometry x="750" y="360" width="240" height="160" as="geometry"/>
                    </mxCell>
                </object>
                <object placeholders="1" c4Name="Fake data loader" c4Type="Container" c4Technology="Python, Playwright" c4Description="爬取uber eats 商家資料作為fake data以便展示用" label="&lt;font style=&quot;font-size: 16px&quot;&gt;&lt;b&gt;%c4Name%&lt;/b&gt;&lt;/font&gt;&lt;div&gt;[%c4Type%: %c4Technology%]&lt;/div&gt;&lt;br&gt;&lt;div&gt;&lt;font style=&quot;font-size: 11px&quot;&gt;&lt;font color=&quot;#E6E6E6&quot;&gt;%c4Description%&lt;/font&gt;&lt;/div&gt;" id="Av403DZLy4ynUhrNrrgC-11">
                    <mxCell style="rounded=1;whiteSpace=wrap;html=1;fontSize=11;labelBackgroundColor=none;fillColor=#23A2D9;fontColor=#ffffff;align=center;arcSize=10;strokeColor=#0E7DAD;metaEdit=1;resizable=0;points=[[0.25,0,0],[0.5,0,0],[0.75,0,0],[1,0.25,0],[1,0.5,0],[1,0.75,0],[0.75,1,0],[0.5,1,0],[0.25,1,0],[0,0.75,0],[0,0.5,0],[0,0.25,0]];spacingLeft=10;spacingRight=10;" vertex="1" parent="1">
                        <mxGeometry x="1160" y="560" width="240" height="120" as="geometry"/>
                    </mxCell>
                </object>
                <object placeholders="1" c4Name="Email validation sender" c4Type="Container" c4Technology="Java" c4Description="對於使用者註冊帳號時發送email驗證的service" label="&lt;font style=&quot;font-size: 16px&quot;&gt;&lt;b&gt;%c4Name%&lt;/b&gt;&lt;/font&gt;&lt;div&gt;[%c4Type%: %c4Technology%]&lt;/div&gt;&lt;br&gt;&lt;div&gt;&lt;font style=&quot;font-size: 11px&quot;&gt;&lt;font color=&quot;#E6E6E6&quot;&gt;%c4Description%&lt;/font&gt;&lt;/div&gt;" id="Av403DZLy4ynUhrNrrgC-12">
                    <mxCell style="rounded=1;whiteSpace=wrap;html=1;fontSize=11;labelBackgroundColor=none;fillColor=#23A2D9;fontColor=#ffffff;align=center;arcSize=10;strokeColor=#0E7DAD;metaEdit=1;resizable=0;points=[[0.25,0,0],[0.5,0,0],[0.75,0,0],[1,0.25,0],[1,0.5,0],[1,0.75,0],[0.75,1,0],[0.5,1,0],[0.25,1,0],[0,0.75,0],[0,0.5,0],[0,0.25,0]];spacingLeft=10;spacingRight=10;" vertex="1" parent="1">
                        <mxGeometry x="1160" y="180" width="240" height="120" as="geometry"/>
                    </mxCell>
                </object>
                <object placeholders="1" c4Name="Container name" c4Type="Container" c4Technology="MongoDB" c4Description="儲存所有的user資料，包含顧客和商家的所有資料collections" label="&lt;font style=&quot;font-size: 16px&quot;&gt;&lt;b&gt;%c4Name%&lt;/b&gt;&lt;/font&gt;&lt;div&gt;[%c4Type%:&amp;nbsp;%c4Technology%]&lt;/div&gt;&lt;br&gt;&lt;div&gt;&lt;font style=&quot;font-size: 11px&quot;&gt;&lt;font color=&quot;#E6E6E6&quot;&gt;%c4Description%&lt;/font&gt;&lt;/div&gt;" id="Av403DZLy4ynUhrNrrgC-13">
                    <mxCell style="shape=cylinder3;size=15;whiteSpace=wrap;html=1;boundedLbl=1;rounded=1;labelBackgroundColor=none;fillColor=#23A2D9;fontSize=12;fontColor=#ffffff;align=center;strokeColor=#0E7DAD;metaEdit=1;points=[[0.5,0,0],[1,0.25,0],[1,0.5,0],[1,0.75,0],[0.5,1,0],[0,0.75,0],[0,0.5,0],[0,0.25,0]];resizable=0;spacingLeft=10;spacingRight=10;" vertex="1" parent="1">
                        <mxGeometry x="1620" y="380" width="240" height="120" as="geometry"/>
                    </mxCell>
                </object>
                <object placeholders="1" c4Type="Relationship" c4Technology="HTTPS" c4Description="Makes API calls to" label="&lt;div style=&quot;text-align: left&quot;&gt;&lt;div style=&quot;text-align: center&quot;&gt;&lt;b&gt;%c4Description%&lt;/b&gt;&lt;/div&gt;&lt;div style=&quot;text-align: center&quot;&gt;[%c4Technology%]&lt;/div&gt;&lt;/div&gt;" id="Av403DZLy4ynUhrNrrgC-14">
                    <mxCell style="endArrow=blockThin;html=1;fontSize=10;fontColor=#404040;strokeWidth=1;endFill=1;strokeColor=#828282;elbow=vertical;metaEdit=1;endSize=14;startSize=14;jumpStyle=arc;jumpSize=16;rounded=1;edgeStyle=orthogonalEdgeStyle;labelBackgroundColor=none;" edge="1" parent="1" target="Av403DZLy4ynUhrNrrgC-9">
                        <mxGeometry width="240" relative="1" as="geometry">
                            <mxPoint x="990" y="439.65999999999985" as="sourcePoint"/>
                            <mxPoint x="1230" y="439.65999999999997" as="targetPoint"/>
                        </mxGeometry>
                    </mxCell>
                </object>
                <object placeholders="1" c4Type="Relationship" c4Description="傳送驗證碼到user" label="&lt;div style=&quot;text-align: left&quot;&gt;&lt;div style=&quot;text-align: center&quot;&gt;&lt;b&gt;%c4Description%&lt;/b&gt;&lt;/div&gt;&lt;/div&gt;" id="Av403DZLy4ynUhrNrrgC-15">
                    <mxCell style="endArrow=blockThin;html=1;fontSize=10;fontColor=#404040;strokeWidth=1;endFill=1;strokeColor=#828282;elbow=vertical;metaEdit=1;endSize=14;startSize=14;jumpStyle=arc;jumpSize=16;rounded=1;edgeStyle=orthogonalEdgeStyle;entryX=1;entryY=0.6;entryDx=0;entryDy=0;entryPerimeter=0;exitX=0;exitY=0.5;exitDx=0;exitDy=0;exitPerimeter=0;labelBackgroundColor=none;" edge="1" parent="1" source="Av403DZLy4ynUhrNrrgC-12" target="Av403DZLy4ynUhrNrrgC-3">
                        <mxGeometry x="0.2727" y="-7" width="240" relative="1" as="geometry">
                            <mxPoint x="1110" y="110" as="sourcePoint"/>
                            <mxPoint x="1350" y="110" as="targetPoint"/>
                            <Array as="points">
                                <mxPoint x="1020" y="240"/>
                                <mxPoint x="1020" y="280"/>
                                <mxPoint x="340" y="280"/>
                                <mxPoint x="340" y="428"/>
                            </Array>
                            <mxPoint as="offset"/>
                        </mxGeometry>
                    </mxCell>
                </object>
                <object placeholders="1" c4Type="Relationship" c4Technology="HTTPS" c4Description="Makes API calls to" label="&lt;div style=&quot;text-align: left&quot;&gt;&lt;div style=&quot;text-align: center&quot;&gt;&lt;b&gt;%c4Description%&lt;/b&gt;&lt;/div&gt;&lt;div style=&quot;text-align: center&quot;&gt;[%c4Technology%]&lt;/div&gt;&lt;/div&gt;" id="Av403DZLy4ynUhrNrrgC-16">
                    <mxCell style="endArrow=blockThin;html=1;fontSize=10;fontColor=#404040;strokeWidth=1;endFill=1;strokeColor=#828282;elbow=vertical;metaEdit=1;endSize=14;startSize=14;jumpStyle=arc;jumpSize=16;rounded=1;edgeStyle=orthogonalEdgeStyle;exitX=0.5;exitY=0;exitDx=0;exitDy=0;exitPerimeter=0;entryX=0.5;entryY=1;entryDx=0;entryDy=0;entryPerimeter=0;labelBackgroundColor=none;" edge="1" parent="1" source="Av403DZLy4ynUhrNrrgC-9" target="Av403DZLy4ynUhrNrrgC-12">
                        <mxGeometry width="240" relative="1" as="geometry">
                            <mxPoint x="1000" y="449.65999999999997" as="sourcePoint"/>
                            <mxPoint x="1210" y="450" as="targetPoint"/>
                        </mxGeometry>
                    </mxCell>
                </object>
                <object placeholders="1" c4Type="Relationship" c4Technology="HTTPS" c4Description="Write and Reads data by API call" label="&lt;div style=&quot;text-align: left&quot;&gt;&lt;div style=&quot;text-align: center&quot;&gt;&lt;b&gt;%c4Description%&lt;/b&gt;&lt;/div&gt;&lt;div style=&quot;text-align: center&quot;&gt;[%c4Technology%]&lt;/div&gt;&lt;/div&gt;" id="Av403DZLy4ynUhrNrrgC-17">
                    <mxCell style="endArrow=blockThin;html=1;fontSize=10;fontColor=#404040;strokeWidth=1;endFill=1;strokeColor=#828282;elbow=vertical;metaEdit=1;endSize=14;startSize=14;jumpStyle=arc;jumpSize=16;rounded=1;edgeStyle=orthogonalEdgeStyle;entryX=0.013;entryY=0.425;entryDx=0;entryDy=0;entryPerimeter=0;exitX=1;exitY=0.5;exitDx=0;exitDy=0;exitPerimeter=0;labelBackgroundColor=none;" edge="1" parent="1" source="Av403DZLy4ynUhrNrrgC-9" target="Av403DZLy4ynUhrNrrgC-13">
                        <mxGeometry x="0.0337" width="240" relative="1" as="geometry">
                            <mxPoint x="1300" y="430" as="sourcePoint"/>
                            <mxPoint x="1540" y="430" as="targetPoint"/>
                            <Array as="points">
                                <mxPoint x="1400" y="430"/>
                                <mxPoint x="1510" y="430"/>
                                <mxPoint x="1510" y="431"/>
                            </Array>
                            <mxPoint as="offset"/>
                        </mxGeometry>
                    </mxCell>
                </object>
                <object placeholders="1" c4Type="Relationship" c4Technology="HTTPS" c4Description="Write Fake data" label="&lt;div style=&quot;text-align: left&quot;&gt;&lt;div style=&quot;text-align: center&quot;&gt;&lt;b&gt;%c4Description%&lt;/b&gt;&lt;/div&gt;&lt;div style=&quot;text-align: center&quot;&gt;[%c4Technology%]&lt;/div&gt;&lt;/div&gt;" id="Av403DZLy4ynUhrNrrgC-18">
                    <mxCell style="endArrow=blockThin;html=1;fontSize=10;fontColor=#404040;strokeWidth=1;endFill=1;strokeColor=#828282;elbow=vertical;metaEdit=1;endSize=14;startSize=14;jumpStyle=arc;jumpSize=16;rounded=1;edgeStyle=orthogonalEdgeStyle;entryX=0.55;entryY=0.967;entryDx=0;entryDy=0;entryPerimeter=0;labelBackgroundColor=none;" edge="1" parent="1" target="Av403DZLy4ynUhrNrrgC-13">
                        <mxGeometry x="-0.3833" width="240" relative="1" as="geometry">
                            <mxPoint x="1400" y="630" as="sourcePoint"/>
                            <mxPoint x="1670" y="620" as="targetPoint"/>
                            <mxPoint as="offset"/>
                        </mxGeometry>
                    </mxCell>
                </object>
            </root>
        </mxGraphModel>
    </diagram>
    <diagram id="VOZJ7sSq4Ql8CML60V5W" name="Backend Application">
        <mxGraphModel dx="1245" dy="2385" grid="0" gridSize="10" guides="1" tooltips="1" connect="1" arrows="1" fold="1" page="1" pageScale="1" pageWidth="827" pageHeight="1169" background="#ffffff" math="0" shadow="0">
            <root>
                <mxCell id="0"/>
                <mxCell id="1" parent="0"/>
                <object placeholders="1" c4Name="[Components]Backend component" c4Type="ComponentDiagramTitle" c4Description="" label="&lt;font style=&quot;font-size: 16px&quot;&gt;&lt;b&gt;&lt;div style=&quot;text-align: left&quot;&gt;%c4Name%&lt;/div&gt;&lt;/b&gt;&lt;/font&gt;&lt;div style=&quot;text-align: left&quot;&gt;%c4Description%&lt;/div&gt;" id="hrTY0zF-lMwiiV8-eTm4-1">
                    <mxCell style="text;html=1;strokeColor=none;fillColor=none;align=left;verticalAlign=top;whiteSpace=wrap;rounded=1;metaEdit=1;allowArrows=0;resizable=1;rotatable=0;connectable=0;recursiveResize=0;expand=0;pointerEvents=0;points=[[0.25,0,0],[0.5,0,0],[0.75,0,0],[1,0.25,0],[1,0.5,0],[1,0.75,0],[0.75,1,0],[0.5,1,0],[0.25,1,0],[0,0.75,0],[0,0.5,0],[0,0.25,0]];fontColor=#000000;" vertex="1" parent="1">
                        <mxGeometry x="41" y="644" width="410" height="40" as="geometry"/>
                    </mxCell>
                </object>
                <object placeholders="1" c4Name="Web Application" c4Type="Container" c4Technology="React, Vite, TailwindCSS, TanStack Query, Zustand" c4Description="提供所有user view層的single page網頁" label="&lt;font style=&quot;font-size: 16px&quot;&gt;&lt;b&gt;%c4Name%&lt;/b&gt;&lt;/font&gt;&lt;div&gt;[%c4Type%: %c4Technology%]&lt;/div&gt;&lt;br&gt;&lt;div&gt;&lt;font style=&quot;font-size: 11px&quot;&gt;&lt;font color=&quot;#E6E6E6&quot;&gt;%c4Description%&lt;/font&gt;&lt;/div&gt;" id="hrTY0zF-lMwiiV8-eTm4-10">
                    <mxCell style="rounded=1;whiteSpace=wrap;html=1;fontSize=11;labelBackgroundColor=none;fillColor=#23A2D9;fontColor=#ffffff;align=center;arcSize=10;strokeColor=#0E7DAD;metaEdit=1;resizable=1;points=[[0.25,0,0],[0.5,0,0],[0.75,0,0],[1,0.25,0],[1,0.5,0],[1,0.75,0],[0.75,1,0],[0.5,1,0],[0.25,1,0],[0,0.75,0],[0,0.5,0],[0,0.25,0]];spacingLeft=10;spacingRight=10;" vertex="1" parent="1">
                        <mxGeometry x="54" y="352" width="240" height="160" as="geometry"/>
                    </mxCell>
                </object>
                <object placeholders="1" c4Name="Database" c4Type="Container" c4Technology="MongoDB" c4Description="儲存所有的user資料，包含顧客和商家的所有資料collections" label="&lt;font style=&quot;font-size: 16px&quot;&gt;&lt;b&gt;%c4Name%&lt;/b&gt;&lt;/font&gt;&lt;div&gt;[%c4Type%:&amp;nbsp;%c4Technology%]&lt;/div&gt;&lt;br&gt;&lt;div&gt;&lt;font style=&quot;font-size: 11px&quot;&gt;&lt;font color=&quot;#E6E6E6&quot;&gt;%c4Description%&lt;/font&gt;&lt;/div&gt;" id="hrTY0zF-lMwiiV8-eTm4-19">
                    <mxCell style="shape=cylinder3;size=15;whiteSpace=wrap;html=1;boundedLbl=1;rounded=1;labelBackgroundColor=none;fillColor=#23A2D9;fontSize=12;fontColor=#ffffff;align=center;strokeColor=#0E7DAD;metaEdit=1;points=[[0.5,0,0],[1,0.25,0],[1,0.5,0],[1,0.75,0],[0.5,1,0],[0,0.75,0],[0,0.5,0],[0,0.25,0]];resizable=0;spacingLeft=10;spacingRight=10;" vertex="1" parent="1">
                        <mxGeometry x="1262" y="504" width="240" height="120" as="geometry"/>
                    </mxCell>
                </object>
                <object placeholders="1" c4Name="Login Controller" c4Type="Component" c4Technology="Spring MVC, Java" c4Description="Allows users to sign in" label="&lt;font style=&quot;font-size: 16px&quot;&gt;&lt;b&gt;%c4Name%&lt;/b&gt;&lt;/font&gt;&lt;div&gt;[%c4Type%: %c4Technology%]&lt;/div&gt;&lt;br&gt;&lt;div&gt;&lt;font style=&quot;font-size: 11px&quot;&gt;%c4Description%&lt;/font&gt;&lt;/div&gt;" id="hrTY0zF-lMwiiV8-eTm4-20">
                    <mxCell style="rounded=1;whiteSpace=wrap;html=1;labelBackgroundColor=none;fillColor=#63BEF2;fontColor=#ffffff;align=center;arcSize=6;strokeColor=#2086C9;metaEdit=1;resizable=0;points=[[0.25,0,0],[0.5,0,0],[0.75,0,0],[1,0.25,0],[1,0.5,0],[1,0.75,0],[0.75,1,0],[0.5,1,0],[0.25,1,0],[0,0.75,0],[0,0.5,0],[0,0.25,0]];" vertex="1" parent="1">
                        <mxGeometry x="404" y="504" width="240" height="120" as="geometry"/>
                    </mxCell>
                </object>
                <object placeholders="1" c4Name="Register Controller" c4Type="Component" c4Technology="Spring MVC, Java" c4Description="Allows users to sign up" label="&lt;font style=&quot;font-size: 16px&quot;&gt;&lt;b&gt;%c4Name%&lt;/b&gt;&lt;/font&gt;&lt;div&gt;[%c4Type%: %c4Technology%]&lt;/div&gt;&lt;br&gt;&lt;div&gt;&lt;font style=&quot;font-size: 11px&quot;&gt;%c4Description%&lt;/font&gt;&lt;/div&gt;" id="hrTY0zF-lMwiiV8-eTm4-21">
                    <mxCell style="rounded=1;whiteSpace=wrap;html=1;labelBackgroundColor=none;fillColor=#63BEF2;fontColor=#ffffff;align=center;arcSize=6;strokeColor=#2086C9;metaEdit=1;resizable=0;points=[[0.25,0,0],[0.5,0,0],[0.75,0,0],[1,0.25,0],[1,0.5,0],[1,0.75,0],[0.75,1,0],[0.5,1,0],[0.25,1,0],[0,0.75,0],[0,0.5,0],[0,0.25,0]];" vertex="1" parent="1">
                        <mxGeometry x="404" y="248" width="240" height="120" as="geometry"/>
                    </mxCell>
                </object>
                <object placeholders="1" c4Type="Relationship" c4Technology="HTTPS" c4Description="Makes API calls to" label="&lt;div style=&quot;text-align: left&quot;&gt;&lt;div style=&quot;text-align: center&quot;&gt;&lt;b&gt;%c4Description%&lt;/b&gt;&lt;/div&gt;&lt;div style=&quot;text-align: center&quot;&gt;[%c4Technology%]&lt;/div&gt;&lt;/div&gt;" id="hrTY0zF-lMwiiV8-eTm4-22">
                    <mxCell style="endArrow=blockThin;html=1;fontSize=10;fontColor=#404040;strokeWidth=1;endFill=1;strokeColor=#828282;elbow=vertical;metaEdit=1;endSize=14;startSize=14;jumpStyle=arc;jumpSize=16;rounded=1;edgeStyle=orthogonalEdgeStyle;labelBackgroundColor=none;exitX=1;exitY=0.75;exitDx=0;exitDy=0;exitPerimeter=0;entryX=0;entryY=0.5;entryDx=0;entryDy=0;entryPerimeter=0;" edge="1" parent="1" source="hrTY0zF-lMwiiV8-eTm4-10" target="hrTY0zF-lMwiiV8-eTm4-20">
                        <mxGeometry x="0.0011" width="240" relative="1" as="geometry">
                            <mxPoint x="334" y="484.65999999999985" as="sourcePoint"/>
                            <mxPoint x="504" y="485" as="targetPoint"/>
                            <mxPoint as="offset"/>
                        </mxGeometry>
                    </mxCell>
                </object>
                <object placeholders="1" c4Type="Relationship" c4Technology="HTTPS" c4Description="Makes API calls to" label="&lt;div style=&quot;text-align: left&quot;&gt;&lt;div style=&quot;text-align: center&quot;&gt;&lt;b&gt;%c4Description%&lt;/b&gt;&lt;/div&gt;&lt;div style=&quot;text-align: center&quot;&gt;[%c4Technology%]&lt;/div&gt;&lt;/div&gt;" id="hrTY0zF-lMwiiV8-eTm4-23">
                    <mxCell style="endArrow=blockThin;html=1;fontSize=10;fontColor=#404040;strokeWidth=1;endFill=1;strokeColor=#828282;elbow=vertical;metaEdit=1;endSize=14;startSize=14;jumpStyle=arc;jumpSize=16;rounded=1;edgeStyle=orthogonalEdgeStyle;labelBackgroundColor=none;exitX=1.009;exitY=0.622;exitDx=0;exitDy=0;exitPerimeter=0;entryX=0;entryY=0.5;entryDx=0;entryDy=0;entryPerimeter=0;" edge="1" parent="1" source="hrTY0zF-lMwiiV8-eTm4-10" target="hrTY0zF-lMwiiV8-eTm4-21">
                        <mxGeometry width="240" relative="1" as="geometry">
                            <mxPoint x="304" y="482" as="sourcePoint"/>
                            <mxPoint x="414" y="574" as="targetPoint"/>
                        </mxGeometry>
                    </mxCell>
                </object>
                <object placeholders="1" c4Name="Auth Controller" c4Type="Component" c4Technology="Spring MVC, Java" c4Description="Allows users to sign in" label="&lt;font style=&quot;font-size: 16px&quot;&gt;&lt;b&gt;%c4Name%&lt;/b&gt;&lt;/font&gt;&lt;div&gt;[%c4Type%: %c4Technology%]&lt;/div&gt;&lt;br&gt;&lt;div&gt;&lt;font style=&quot;font-size: 11px&quot;&gt;%c4Description%&lt;/font&gt;&lt;/div&gt;" id="hrTY0zF-lMwiiV8-eTm4-25">
                    <mxCell style="rounded=1;whiteSpace=wrap;html=1;labelBackgroundColor=none;fillColor=#63BEF2;fontColor=#ffffff;align=center;arcSize=6;strokeColor=#2086C9;metaEdit=1;resizable=0;points=[[0.25,0,0],[0.5,0,0],[0.75,0,0],[1,0.25,0],[1,0.5,0],[1,0.75,0],[0.75,1,0],[0.5,1,0],[0.25,1,0],[0,0.75,0],[0,0.5,0],[0,0.25,0]];" vertex="1" parent="1">
                        <mxGeometry x="792" y="504" width="240" height="120" as="geometry"/>
                    </mxCell>
                </object>
                <object placeholders="1" c4Type="Relationship" c4Description="Reads and writes to DB" label="&lt;div style=&quot;text-align: left&quot;&gt;&lt;div style=&quot;text-align: center&quot;&gt;&lt;b&gt;%c4Description%&lt;/b&gt;&lt;/div&gt;&lt;/div&gt;" id="hrTY0zF-lMwiiV8-eTm4-32">
                    <mxCell style="endArrow=blockThin;html=1;fontSize=10;fontColor=#404040;strokeWidth=1;endFill=1;strokeColor=#828282;elbow=vertical;metaEdit=1;endSize=14;startSize=14;jumpStyle=arc;jumpSize=16;rounded=0;edgeStyle=orthogonalEdgeStyle;exitX=1;exitY=0.5;exitDx=0;exitDy=0;exitPerimeter=0;entryX=0;entryY=0.5;entryDx=0;entryDy=0;entryPerimeter=0;labelBackgroundColor=none;" edge="1" parent="1" source="hrTY0zF-lMwiiV8-eTm4-25" target="hrTY0zF-lMwiiV8-eTm4-19">
                        <mxGeometry x="0.0635" y="6" width="240" relative="1" as="geometry">
                            <mxPoint x="1050" y="528" as="sourcePoint"/>
                            <mxPoint x="1290" y="528" as="targetPoint"/>
                            <mxPoint as="offset"/>
                        </mxGeometry>
                    </mxCell>
                </object>
                <object placeholders="1" c4Type="Relationship" c4Description="Uses" label="&lt;div style=&quot;text-align: left&quot;&gt;&lt;div style=&quot;text-align: center&quot;&gt;&lt;b&gt;%c4Description%&lt;/b&gt;&lt;/div&gt;" id="hrTY0zF-lMwiiV8-eTm4-34">
                    <mxCell style="endArrow=blockThin;html=1;fontSize=10;fontColor=#404040;strokeWidth=1;endFill=1;strokeColor=#828282;elbow=vertical;metaEdit=1;endSize=14;startSize=14;jumpStyle=arc;jumpSize=16;rounded=0;edgeStyle=orthogonalEdgeStyle;labelBackgroundColor=none;exitX=1;exitY=0.5;exitDx=0;exitDy=0;exitPerimeter=0;entryX=0;entryY=0.5;entryDx=0;entryDy=0;entryPerimeter=0;" edge="1" parent="1" source="hrTY0zF-lMwiiV8-eTm4-20" target="hrTY0zF-lMwiiV8-eTm4-25">
                        <mxGeometry width="240" relative="1" as="geometry">
                            <mxPoint x="705" y="525" as="sourcePoint"/>
                            <mxPoint x="795" y="564" as="targetPoint"/>
                        </mxGeometry>
                    </mxCell>
                </object>
                <object placeholders="1" c4Type="Relationship" c4Description="Uses" label="&lt;div style=&quot;text-align: left&quot;&gt;&lt;div style=&quot;text-align: center&quot;&gt;&lt;b&gt;%c4Description%&lt;/b&gt;&lt;/div&gt;" id="hrTY0zF-lMwiiV8-eTm4-35">
                    <mxCell style="endArrow=blockThin;html=1;fontSize=10;fontColor=#404040;strokeWidth=1;endFill=1;strokeColor=#828282;elbow=vertical;metaEdit=1;endSize=14;startSize=14;jumpStyle=arc;jumpSize=16;rounded=0;edgeStyle=orthogonalEdgeStyle;labelBackgroundColor=none;exitX=1;exitY=0.5;exitDx=0;exitDy=0;exitPerimeter=0;entryX=0;entryY=0.5;entryDx=0;entryDy=0;entryPerimeter=0;" edge="1" parent="1" source="hrTY0zF-lMwiiV8-eTm4-21" target="hrTY0zF-lMwiiV8-eTm4-39">
                        <mxGeometry width="240" relative="1" as="geometry">
                            <mxPoint x="712" y="365" as="sourcePoint"/>
                            <mxPoint x="753" y="340" as="targetPoint"/>
                        </mxGeometry>
                    </mxCell>
                </object>
                <object placeholders="1" c4Name="E-mail sender component" c4Type="Component" c4Technology="Spring MVC, Java" c4Description="Process email sender" label="&lt;font style=&quot;font-size: 16px&quot;&gt;&lt;b&gt;%c4Name%&lt;/b&gt;&lt;/font&gt;&lt;div&gt;[%c4Type%: %c4Technology%]&lt;/div&gt;&lt;br&gt;&lt;div&gt;&lt;font style=&quot;font-size: 11px&quot;&gt;%c4Description%&lt;/font&gt;&lt;/div&gt;" id="hrTY0zF-lMwiiV8-eTm4-39">
                    <mxCell style="rounded=1;whiteSpace=wrap;html=1;labelBackgroundColor=none;fillColor=#63BEF2;fontColor=#ffffff;align=center;arcSize=6;strokeColor=#2086C9;metaEdit=1;resizable=0;points=[[0.25,0,0],[0.5,0,0],[0.75,0,0],[1,0.25,0],[1,0.5,0],[1,0.75,0],[0.75,1,0],[0.5,1,0],[0.25,1,0],[0,0.75,0],[0,0.5,0],[0,0.25,0]];" vertex="1" parent="1">
                        <mxGeometry x="792" y="248" width="240" height="120" as="geometry"/>
                    </mxCell>
                </object>
                <object placeholders="1" c4Type="Relationship" c4Description="send email" label="&lt;div style=&quot;text-align: left&quot;&gt;&lt;div style=&quot;text-align: center&quot;&gt;&lt;b&gt;%c4Description%&lt;/b&gt;&lt;/div&gt;" id="hrTY0zF-lMwiiV8-eTm4-40">
                    <mxCell style="endArrow=blockThin;html=1;fontSize=10;fontColor=#404040;strokeWidth=1;endFill=1;strokeColor=#828282;elbow=vertical;metaEdit=1;endSize=14;startSize=14;jumpStyle=arc;jumpSize=16;rounded=0;edgeStyle=orthogonalEdgeStyle;labelBackgroundColor=none;exitX=1;exitY=0.5;exitDx=0;exitDy=0;exitPerimeter=0;entryX=0;entryY=0.5;entryDx=0;entryDy=0;entryPerimeter=0;" edge="1" parent="1" source="hrTY0zF-lMwiiV8-eTm4-39" target="hrTY0zF-lMwiiV8-eTm4-42">
                        <mxGeometry x="-0.0004" width="240" relative="1" as="geometry">
                            <mxPoint x="1075" y="297" as="sourcePoint"/>
                            <mxPoint x="1250.0000000000005" y="287" as="targetPoint"/>
                            <mxPoint as="offset"/>
                        </mxGeometry>
                    </mxCell>
                </object>
                <object placeholders="1" c4Name="Notifications" c4Type="Component" c4Technology="Software System" c4Description="sends notification to user email and devices" label="&lt;font style=&quot;font-size: 16px&quot;&gt;&lt;b&gt;%c4Name%&lt;/b&gt;&lt;/font&gt;&lt;div&gt;[%c4Type%: %c4Technology%]&lt;/div&gt;&lt;br&gt;&lt;div&gt;&lt;font style=&quot;font-size: 11px&quot;&gt;%c4Description%&lt;/font&gt;&lt;/div&gt;" id="hrTY0zF-lMwiiV8-eTm4-42">
                    <mxCell style="rounded=1;whiteSpace=wrap;html=1;labelBackgroundColor=none;align=center;arcSize=6;metaEdit=1;resizable=0;points=[[0.25,0,0],[0.5,0,0],[0.75,0,0],[1,0.25,0],[1,0.5,0],[1,0.75,0],[0.75,1,0],[0.5,1,0],[0.25,1,0],[0,0.75,0],[0,0.5,0],[0,0.25,0]];fillColor=#647687;fontColor=#ffffff;strokeColor=#314354;" vertex="1" parent="1">
                        <mxGeometry x="1262" y="248" width="240" height="120" as="geometry"/>
                    </mxCell>
                </object>
                <object placeholders="1" c4Type="Relationship" c4Description="Reads and writes to DB" label="&lt;div style=&quot;text-align: left&quot;&gt;&lt;div style=&quot;text-align: center&quot;&gt;&lt;b&gt;%c4Description%&lt;/b&gt;&lt;/div&gt;&lt;/div&gt;" id="hrTY0zF-lMwiiV8-eTm4-43">
                    <mxCell style="endArrow=blockThin;html=1;fontSize=10;fontColor=#404040;strokeWidth=1;endFill=1;strokeColor=#828282;elbow=vertical;metaEdit=1;endSize=14;startSize=14;jumpStyle=arc;jumpSize=16;rounded=0;edgeStyle=orthogonalEdgeStyle;exitX=1;exitY=0.5;exitDx=0;exitDy=0;exitPerimeter=0;entryX=0.001;entryY=0.415;entryDx=0;entryDy=0;entryPerimeter=0;labelBackgroundColor=none;" edge="1" parent="1" source="hrTY0zF-lMwiiV8-eTm4-45" target="hrTY0zF-lMwiiV8-eTm4-19">
                        <mxGeometry x="-0.2067" y="15" width="240" relative="1" as="geometry">
                            <mxPoint x="1032" y="115" as="sourcePoint"/>
                            <mxPoint x="1272" y="574" as="targetPoint"/>
                            <mxPoint as="offset"/>
                            <Array as="points">
                                <mxPoint x="1191" y="156"/>
                                <mxPoint x="1191" y="553"/>
                                <mxPoint x="1262" y="553"/>
                            </Array>
                        </mxGeometry>
                    </mxCell>
                </object>
                <object placeholders="1" c4Name="Store Controller" c4Type="Component" c4Technology="Spring MVC, Java" c4Description="Allows users to see store information" label="&lt;font style=&quot;font-size: 16px&quot;&gt;&lt;b&gt;%c4Name%&lt;/b&gt;&lt;/font&gt;&lt;div&gt;[%c4Type%: %c4Technology%]&lt;/div&gt;&lt;br&gt;&lt;div&gt;&lt;font style=&quot;font-size: 11px&quot;&gt;%c4Description%&lt;/font&gt;&lt;/div&gt;" id="hrTY0zF-lMwiiV8-eTm4-45">
                    <mxCell style="rounded=1;whiteSpace=wrap;html=1;labelBackgroundColor=none;fillColor=#63BEF2;fontColor=#ffffff;align=center;arcSize=6;strokeColor=#2086C9;metaEdit=1;resizable=0;points=[[0.25,0,0],[0.5,0,0],[0.75,0,0],[1,0.25,0],[1,0.5,0],[1,0.75,0],[0.75,1,0],[0.5,1,0],[0.25,1,0],[0,0.75,0],[0,0.5,0],[0,0.25,0]];" vertex="1" parent="1">
                        <mxGeometry x="404" y="96" width="240" height="120" as="geometry"/>
                    </mxCell>
                </object>
                <object placeholders="1" c4Type="Relationship" c4Technology="HTTPS" c4Description="Makes API calls to" label="&lt;div style=&quot;text-align: left&quot;&gt;&lt;div style=&quot;text-align: center&quot;&gt;&lt;b&gt;%c4Description%&lt;/b&gt;&lt;/div&gt;&lt;div style=&quot;text-align: center&quot;&gt;[%c4Technology%]&lt;/div&gt;&lt;/div&gt;" id="hrTY0zF-lMwiiV8-eTm4-47">
                    <mxCell style="endArrow=blockThin;html=1;fontSize=10;fontColor=#404040;strokeWidth=1;endFill=1;strokeColor=#828282;elbow=vertical;metaEdit=1;endSize=14;startSize=14;jumpStyle=arc;jumpSize=16;rounded=1;edgeStyle=orthogonalEdgeStyle;labelBackgroundColor=none;exitX=1;exitY=0.5;exitDx=0;exitDy=0;exitPerimeter=0;entryX=-0.004;entryY=0.433;entryDx=0;entryDy=0;entryPerimeter=0;" edge="1" parent="1" source="hrTY0zF-lMwiiV8-eTm4-10" target="hrTY0zF-lMwiiV8-eTm4-45">
                        <mxGeometry x="0.2622" y="-12" width="240" relative="1" as="geometry">
                            <mxPoint x="343" y="410" as="sourcePoint"/>
                            <mxPoint x="583" y="410" as="targetPoint"/>
                            <Array as="points">
                                <mxPoint x="327" y="432"/>
                                <mxPoint x="327" y="148"/>
                            </Array>
                            <mxPoint as="offset"/>
                        </mxGeometry>
                    </mxCell>
                </object>
                <object placeholders="1" c4Name="Customer Controller" c4Type="Component" c4Technology="Spring MVC, Java" c4Description="Maintain customer information" label="&lt;font style=&quot;font-size: 16px&quot;&gt;&lt;b&gt;%c4Name%&lt;/b&gt;&lt;/font&gt;&lt;div&gt;[%c4Type%: %c4Technology%]&lt;/div&gt;&lt;br&gt;&lt;div&gt;&lt;font style=&quot;font-size: 11px&quot;&gt;%c4Description%&lt;/font&gt;&lt;/div&gt;" id="hrTY0zF-lMwiiV8-eTm4-48">
                    <mxCell style="rounded=1;whiteSpace=wrap;html=1;labelBackgroundColor=none;fillColor=#63BEF2;fontColor=#ffffff;align=center;arcSize=6;strokeColor=#2086C9;metaEdit=1;resizable=0;points=[[0.25,0,0],[0.5,0,0],[0.75,0,0],[1,0.25,0],[1,0.5,0],[1,0.75,0],[0.75,1,0],[0.5,1,0],[0.25,1,0],[0,0.75,0],[0,0.5,0],[0,0.25,0]];" vertex="1" parent="1">
                        <mxGeometry x="404" y="-43" width="240" height="120" as="geometry"/>
                    </mxCell>
                </object>
                <object placeholders="1" c4Type="Relationship" c4Description="Reads and writes to DB" label="&lt;div style=&quot;text-align: left&quot;&gt;&lt;div style=&quot;text-align: center&quot;&gt;&lt;b&gt;%c4Description%&lt;/b&gt;&lt;/div&gt;&lt;/div&gt;" id="hrTY0zF-lMwiiV8-eTm4-49">
                    <mxCell style="endArrow=blockThin;html=1;fontSize=10;fontColor=#404040;strokeWidth=1;endFill=1;strokeColor=#828282;elbow=vertical;metaEdit=1;endSize=14;startSize=14;jumpStyle=arc;jumpSize=16;rounded=0;edgeStyle=orthogonalEdgeStyle;exitX=1;exitY=0.5;exitDx=0;exitDy=0;exitPerimeter=0;entryX=0;entryY=0.25;entryDx=0;entryDy=0;entryPerimeter=0;labelBackgroundColor=none;" edge="1" parent="1" source="hrTY0zF-lMwiiV8-eTm4-48" target="hrTY0zF-lMwiiV8-eTm4-19">
                        <mxGeometry x="-0.2987" y="11" width="240" relative="1" as="geometry">
                            <mxPoint x="654" y="166" as="sourcePoint"/>
                            <mxPoint x="1272" y="544" as="targetPoint"/>
                            <mxPoint as="offset"/>
                            <Array as="points">
                                <mxPoint x="1201" y="17"/>
                                <mxPoint x="1201" y="534"/>
                            </Array>
                        </mxGeometry>
                    </mxCell>
                </object>
                <object placeholders="1" c4Type="Relationship" c4Technology="HTTPS" c4Description="Makes API calls to" label="&lt;div style=&quot;text-align: left&quot;&gt;&lt;div style=&quot;text-align: center&quot;&gt;&lt;b&gt;%c4Description%&lt;/b&gt;&lt;/div&gt;&lt;div style=&quot;text-align: center&quot;&gt;[%c4Technology%]&lt;/div&gt;&lt;/div&gt;" id="hrTY0zF-lMwiiV8-eTm4-50">
                    <mxCell style="endArrow=blockThin;html=1;fontSize=10;fontColor=#404040;strokeWidth=1;endFill=1;strokeColor=#828282;elbow=vertical;metaEdit=1;endSize=14;startSize=14;jumpStyle=arc;jumpSize=16;rounded=1;edgeStyle=orthogonalEdgeStyle;labelBackgroundColor=none;exitX=1;exitY=0.25;exitDx=0;exitDy=0;exitPerimeter=0;entryX=0;entryY=0.5;entryDx=0;entryDy=0;entryPerimeter=0;" edge="1" parent="1" source="hrTY0zF-lMwiiV8-eTm4-10" target="hrTY0zF-lMwiiV8-eTm4-48">
                        <mxGeometry x="0.3485" y="2" width="240" relative="1" as="geometry">
                            <mxPoint x="303.9999999999998" y="442" as="sourcePoint"/>
                            <mxPoint x="413.0400000000002" y="157.9600000000005" as="targetPoint"/>
                            <Array as="points">
                                <mxPoint x="314" y="392"/>
                                <mxPoint x="314" y="17"/>
                            </Array>
                            <mxPoint as="offset"/>
                        </mxGeometry>
                    </mxCell>
                </object>
                <object placeholders="1" c4Type="Relationship" c4Description="Then login" label="&lt;div style=&quot;text-align: left&quot;&gt;&lt;div style=&quot;text-align: center&quot;&gt;&lt;b&gt;%c4Description%&lt;/b&gt;&lt;/div&gt;" id="hrTY0zF-lMwiiV8-eTm4-51">
                    <mxCell style="endArrow=blockThin;html=1;fontSize=10;fontColor=#404040;strokeWidth=1;endFill=1;strokeColor=#828282;elbow=vertical;metaEdit=1;endSize=14;startSize=14;jumpStyle=arc;jumpSize=16;rounded=0;edgeStyle=orthogonalEdgeStyle;labelBackgroundColor=none;exitX=0.5;exitY=1;exitDx=0;exitDy=0;exitPerimeter=0;entryX=0.47;entryY=-0.028;entryDx=0;entryDy=0;entryPerimeter=0;" edge="1" parent="1" source="hrTY0zF-lMwiiV8-eTm4-42" target="hrTY0zF-lMwiiV8-eTm4-20">
                        <mxGeometry width="240" relative="1" as="geometry">
                            <mxPoint x="884" y="439" as="sourcePoint"/>
                            <mxPoint x="1124" y="439" as="targetPoint"/>
                        </mxGeometry>
                    </mxCell>
                </object>
            </root>
        </mxGraphModel>
    </diagram>
</mxfile>